<svg xmlns="http://www.w3.org/2000/svg" xmlns:xlink="http://www.w3.org/1999/xlink" width="2540" zoomAndPan="magnify" viewBox="0 0 1904.88 952.499971" height="1270" preserveAspectRatio="xMidYMid meet" version="1.0"><defs><clipPath id="982551559d"><path d="M 44.457031 73.449219 L 489.488281 73.449219 L 489.488281 288.339844 L 44.457031 288.339844 Z M 44.457031 73.449219 " clip-rule="nonzero"/></clipPath><clipPath id="663668d69f"><path d="M 632.144531 75.164062 L 1008.101562 75.164062 L 1008.101562 290.050781 L 632.144531 290.050781 Z M 632.144531 75.164062 " clip-rule="nonzero"/></clipPath><clipPath id="5ea1da9df8"><path d="M 44.457031 674.3125 L 886.636719 674.3125 L 886.636719 889.203125 L 44.457031 889.203125 Z M 44.457031 674.3125 " clip-rule="nonzero"/></clipPath><clipPath id="138a615ff7"><path d="M 1484.46875 73.449219 L 1860.425781 73.449219 L 1860.425781 288.339844 L 1484.46875 288.339844 Z M 1484.46875 73.449219 " clip-rule="nonzero"/></clipPath><clipPath id="6d07f36332"><path d="M 997.574219 674.3125 L 1373.53125 674.3125 L 1373.53125 889.203125 L 997.574219 889.203125 Z M 997.574219 674.3125 " clip-rule="nonzero"/></clipPath><clipPath id="72b0835207"><path d="M 1484.46875 674.3125 L 1860.425781 674.3125 L 1860.425781 889.203125 L 1484.46875 889.203125 Z M 1484.46875 674.3125 " clip-rule="nonzero"/></clipPath></defs><path stroke-linecap="butt" transform="matrix(0.749606, 0.00000000000178996, -0.00000000000178996, 0.749606, 430.628283, 165.318953)" fill="none" stroke-linejoin="miter" d="M 0.000831897 3.998703 L 264.832506 3.998703 " stroke="#000000" stroke-width="8" stroke-opacity="1" stroke-miterlimit="4"/><path stroke-linecap="round" transform="matrix(0.749606, 0.00000000000178996, -0.00000000000178996, 0.749606, 430.628283, 165.318953)" fill="none" stroke-linejoin="round" d="M 248.829316 -8.002386 L 264.832506 3.998703 L 248.829316 15.999792 " stroke="#000000" stroke-width="8" stroke-opacity="1" stroke-miterlimit="4"/><g clip-path="url(#982551559d)"><path fill="#d9d9d9" d="M 44.457031 73.449219 L 489.34375 73.449219 L 489.34375 288.339844 L 44.457031 288.339844 Z M 44.457031 73.449219 " fill-opacity="1" fill-rule="nonzero"/></g><g clip-path="url(#663668d69f)"><path fill="#d9d9d9" d="M 632.144531 75.164062 L 1008.199219 75.164062 L 1008.199219 290.050781 L 632.144531 290.050781 Z M 632.144531 75.164062 " fill-opacity="1" fill-rule="nonzero"/></g><path stroke-linecap="butt" transform="matrix(0, 0.749606, -0.749606, 0, 1675.439005, 201.035945)" fill="none" stroke-linejoin="miter" d="M -0.00105155 3.998897 L 627.375027 3.998897 " stroke="#000000" stroke-width="8" stroke-opacity="1" stroke-miterlimit="4"/><path stroke-linecap="round" transform="matrix(0, 0.749606, -0.749606, 0, 1675.439005, 201.035945)" fill="none" stroke-linejoin="round" d="M 611.377049 -8.002192 L 627.375027 3.998897 L 611.377049 15.999986 " stroke="#000000" stroke-width="8" stroke-opacity="1" stroke-miterlimit="4"/><g clip-path="url(#5ea1da9df8)"><path fill="#d9d9d9" d="M 44.457031 674.3125 L 886.382812 674.3125 L 886.382812 889.203125 L 44.457031 889.203125 Z M 44.457031 674.3125 " fill-opacity="1" fill-rule="nonzero"/></g><g clip-path="url(#138a615ff7)"><path fill="#d9d9d9" d="M 1484.46875 73.449219 L 1860.523438 73.449219 L 1860.523438 288.339844 L 1484.46875 288.339844 Z M 1484.46875 73.449219 " fill-opacity="1" fill-rule="nonzero"/></g><path stroke-linecap="butt" transform="matrix(-0.749606, -0.00000000130831, 0.00000000130831, -0.749606, 1088.153054, 782.881422)" fill="none" stroke-linejoin="miter" d="M 0.000947677 4.000246 L 264.832621 4.000245 " stroke="#000000" stroke-width="8" stroke-opacity="1" stroke-miterlimit="4"/><path stroke-linecap="round" transform="matrix(-0.749606, -0.00000000130831, 0.00000000130831, -0.749606, 1088.153054, 782.881422)" fill="none" stroke-linejoin="round" d="M 248.829432 -8.000844 L 264.832621 4.000245 L 248.829432 16.001334 " stroke="#000000" stroke-width="8" stroke-opacity="1" stroke-miterlimit="4"/><g clip-path="url(#6d07f36332)"><path fill="#d9d9d9" d="M 997.574219 674.3125 L 1373.628906 674.3125 L 1373.628906 889.203125 L 997.574219 889.203125 Z M 997.574219 674.3125 " fill-opacity="1" fill-rule="nonzero"/></g><path stroke-linecap="butt" transform="matrix(-0.749606, -0.00000000130831, 0.00000000130831, -0.749606, 1575.046336, 782.881422)" fill="none" stroke-linejoin="miter" d="M -0.000718797 4.000246 L 264.830955 4.000245 " stroke="#000000" stroke-width="8" stroke-opacity="1" stroke-miterlimit="4"/><path stroke-linecap="round" transform="matrix(-0.749606, -0.00000000130831, 0.00000000130831, -0.749606, 1575.046336, 782.881422)" fill="none" stroke-linejoin="round" d="M 248.832977 -8.000844 L 264.830955 4.000245 L 248.832977 16.001334 " stroke="#000000" stroke-width="8" stroke-opacity="1" stroke-miterlimit="4"/><g clip-path="url(#72b0835207)"><path fill="#d9d9d9" d="M 1484.46875 674.3125 L 1860.523438 674.3125 L 1860.523438 889.203125 L 1484.46875 889.203125 Z M 1484.46875 674.3125 " fill-opacity="1" fill-rule="nonzero"/></g><path stroke-linecap="butt" transform="matrix(0.749602, -0.00269394, 0.00269394, 0.749602, 1008.091103, 179.608736)" fill="none" stroke-linejoin="miter" d="M -0.00041405 3.997766 L 631.491229 4.000407 " stroke="#000000" stroke-width="8" stroke-opacity="1" stroke-miterlimit="4"/><path stroke-linecap="round" transform="matrix(0.749602, -0.00269394, 0.00269394, 0.749602, 1008.091103, 179.608736)" fill="none" stroke-linejoin="round" d="M 615.49459 -8.000925 L 631.491229 4.000407 L 615.491708 16.001396 " stroke="#000000" stroke-width="8" stroke-opacity="1" stroke-miterlimit="4"/><path stroke-linecap="butt" transform="matrix(0, 0.749606, -0.749606, 0, 823.119366, 290.054448)" fill="none" stroke-linejoin="miter" d="M 4.00242 3.999796 L 508.616165 3.999796 " stroke="#000000" stroke-width="8" stroke-opacity="1" stroke-miterlimit="4"/><path stroke-linecap="round" transform="matrix(0, 0.749606, -0.749606, 0, 823.119366, 290.054448)" fill="none" stroke-linejoin="round" d="M 20.000398 -8.001293 L 4.00242 3.999796 L 20.000398 16.000885 " stroke="#000000" stroke-width="8" stroke-opacity="1" stroke-miterlimit="4"/><path stroke-linecap="round" transform="matrix(0, 0.749606, -0.749606, 0, 823.119366, 290.054448)" fill="none" stroke-linejoin="round" d="M 492.618187 -8.001293 L 508.616165 3.999796 L 492.618187 16.000885 " stroke="#000000" stroke-width="8" stroke-opacity="1" stroke-miterlimit="4"/><path stroke-linecap="butt" transform="matrix(0, 0.749606, -0.749606, 0, 113.585621, 288.343414)" fill="none" stroke-linejoin="miter" d="M 4.002548 4.001678 L 510.898741 4.001678 " stroke="#000000" stroke-width="8" stroke-opacity="1" stroke-miterlimit="4"/><path stroke-linecap="round" transform="matrix(0, 0.749606, -0.749606, 0, 113.585621, 288.343414)" fill="none" stroke-linejoin="round" d="M 20.000526 -7.999411 L 4.002548 4.001678 L 20.000526 15.997555 " stroke="#000000" stroke-width="8" stroke-opacity="1" stroke-miterlimit="4"/><path stroke-linecap="round" transform="matrix(0, 0.749606, -0.749606, 0, 113.585621, 288.343414)" fill="none" stroke-linejoin="round" d="M 494.900763 -7.999411 L 510.898741 4.001678 L 494.900763 15.997555 " stroke="#000000" stroke-width="8" stroke-opacity="1" stroke-miterlimit="4"/></svg>