<?xml version="1.0" encoding="UTF-8"?>
<svg version="1.1" xmlns="http://www.w3.org/2000/svg" width="2540" height="1270">
<path d="M0 0 C838.2 0 1676.4 0 2540 0 C2540 419.1 2540 838.2 2540 1270 C1701.8 1270 863.6 1270 0 1270 C0 850.9 0 431.8 0 0 Z " fill="#FEFEFE" transform="translate(0,0)"/>
<path d="M0 0 C3.22651649 0.35789861 5.2762948 1.71519436 7.8203125 3.65234375 C8.52027344 4.18150391 9.22023438 4.71066406 9.94140625 5.25585938 C10.66199219 5.81080078 11.38257813 6.36574219 12.125 6.9375 C12.85332031 7.48857422 13.58164063 8.03964844 14.33203125 8.60742188 C19.660111 12.660111 19.660111 12.660111 22 15 C21.98046875 16.8125 21.98046875 16.8125 21 19 C19.14010958 20.80493254 17.33296508 22.39915132 15.3125 24 C14.53616211 24.63808594 14.53616211 24.63808594 13.74414062 25.2890625 C4.13413426 33.09195683 4.13413426 33.09195683 0.6875 32.8125 C-1 32 -1 32 -2 31 C-2.375 28.6875 -2.375 28.6875 -2 26 C0.5234375 23.83203125 0.5234375 23.83203125 3 22 C-82.12515712 21.83780781 -167.24910053 22.05427754 -267.73756164 22.42919171 C-269.93911463 22.4375061 -272.1406677 22.44579798 -274.34222078 22.45408535 C-346.77275343 22.72694194 -419.20235718 23.0380976 -491.63087845 23.66103172 C-497.57292443 23.7121148 -503.51497479 23.76265022 -509.45703125 23.8125 C-510.55812225 23.82175129 -511.65921326 23.83100258 -512.79367065 23.84053421 C-546.52842008 24.11940237 -580.26444421 24.10788606 -614 24 C-614 21.03 -614 18.06 -614 15 C-556.55594732 14.69085824 -499.11188111 14.38427856 -441.66780275 14.07994545 C-438.38532395 14.0625547 -435.10284516 14.04515955 -431.82036638 14.02776432 C-238.28083228 13.00227135 -238.28083228 13.00227135 -90.1875 12.375 C-88.92738822 12.36987475 -87.66727644 12.3647495 -86.36897945 12.35946894 C-55.91266831 12.23566824 -25.45634505 12.1151664 5 12 C4.50121338 11.6702417 4.00242676 11.3404834 3.48852539 11.00073242 C2.84391357 10.56092041 2.19930176 10.1211084 1.53515625 9.66796875 C0.89199463 9.23508545 0.24883301 8.80220215 -0.41381836 8.35620117 C-2 7 -2 7 -2.5625 4.3125 C-2 2 -2 2 0 0 Z " fill="#0D0D0D" transform="translate(1958,285)"/>
<path d="M0 0 C3.50616308 0.17440605 4.79350043 0.7955898 7.31640625 3.29296875 C11.80451242 9.07677165 11.80451242 9.07677165 14 12 C14.49628906 12.62261719 14.99257812 13.24523437 15.50390625 13.88671875 C17.42386342 16.43551206 18.03109356 17.64242408 17.75 20.875 C17.5025 21.57625 17.255 22.2775 17 23 C15.35 23.33 13.7 23.66 12 24 C10.35 22.02 8.7 20.04 7 18 C7 95.55 7 173.1 7 253 C8.65 251.02 10.3 249.04 12 247 C13.65 247.33 15.3 247.66 17 248 C17.79296875 250.05859375 17.79296875 250.05859375 18 253 C16.53034493 255.57116006 15.10037728 257.73702652 13.3125 260.0625 C12.86455078 260.67416016 12.41660156 261.28582031 11.95507812 261.91601562 C6.77141652 268.89547266 6.77141652 268.89547266 4 271 C1.53515625 271.07421875 1.53515625 271.07421875 -1 270 C-4.3853865 266.64886699 -7.1419965 262.80534917 -10 259 C-10.74443359 258.06607422 -10.74443359 258.06607422 -11.50390625 257.11328125 C-13.42386342 254.56448794 -14.03109356 253.35757592 -13.75 250.125 C-13.5025 249.42375 -13.255 248.7225 -13 248 C-11.35 247.67 -9.7 247.34 -8 247 C-6.35 248.98 -4.7 250.96 -3 253 C-3 175.45 -3 97.9 -3 18 C-4.65 19.98 -6.3 21.96 -8 24 C-9.65 23.67 -11.3 23.34 -13 23 C-14.31048736 18.61641501 -14.31048736 18.61641501 -12.93603516 15.88769531 C-12.12078369 14.86820801 -12.12078369 14.86820801 -11.2890625 13.828125 C-10.70382813 13.08175781 -10.11859375 12.33539062 -9.515625 11.56640625 C-8.89171875 10.80199219 -8.2678125 10.03757812 -7.625 9.25 C-7.00882813 8.47011719 -6.39265625 7.69023438 -5.7578125 6.88671875 C-1.43191964 1.43191964 -1.43191964 1.43191964 0 0 Z " fill="#040404" transform="translate(154,505)"/>
<path d="M0 0 C6.3234544 2.36833498 12.20329326 11.89981103 15.0859375 17.78125 C15.24609375 20.55078125 15.24609375 20.55078125 15.0859375 22.78125 C13.1059375 23.11125 11.1259375 23.44125 9.0859375 23.78125 C7.4359375 21.47125 5.7859375 19.16125 4.0859375 16.78125 C4.0859375 94.00125 4.0859375 171.22125 4.0859375 250.78125 C6.0659375 248.47125 8.0459375 246.16125 10.0859375 243.78125 C14.0859375 244.78125 14.0859375 244.78125 15.3359375 246.84375 C15.5834375 247.483125 15.8309375 248.1225 16.0859375 248.78125 C14.50439587 251.01170661 12.92077109 253.24063423 11.3359375 255.46875 C10.8925 256.09458984 10.4490625 256.72042969 9.9921875 257.36523438 C9.11276811 258.60030131 8.22676519 259.83070907 7.33398438 261.05615234 C6.21885915 262.59752067 5.14184 264.16629226 4.0703125 265.73828125 C2.0859375 267.78125 2.0859375 267.78125 -0.31396484 268.14624023 C-3.69713464 267.67132579 -4.42695348 266.64980472 -6.5 263.984375 C-7.12003906 263.1903125 -7.74007813 262.39625 -8.37890625 261.578125 C-9.00925781 260.73765625 -9.63960937 259.8971875 -10.2890625 259.03125 C-10.94261719 258.20625 -11.59617187 257.38125 -12.26953125 256.53125 C-16.97138574 250.39409257 -16.97138574 250.39409257 -16.71337891 247.63574219 C-15.9140625 245.78125 -15.9140625 245.78125 -13.9140625 243.78125 C-12.0390625 243.84375 -12.0390625 243.84375 -9.9140625 244.78125 C-7.9340625 247.25625 -7.9340625 247.25625 -5.9140625 249.78125 C-5.9140625 173.55125 -5.9140625 97.32125 -5.9140625 18.78125 C-7.2340625 20.43125 -8.5540625 22.08125 -9.9140625 23.78125 C-12.5390625 24.21875 -12.5390625 24.21875 -14.9140625 23.78125 C-15.5740625 23.12125 -16.2340625 22.46125 -16.9140625 21.78125 C-16.90414916 16.42804634 -13.09443493 12.55804923 -9.9765625 8.53125 C-9.42548828 7.7990625 -8.87441406 7.066875 -8.30664062 6.3125 C-3.21618449 -0.36756394 -3.21618449 -0.36756394 0 0 Z " fill="#0C0C0C" transform="translate(1093.9140625,508.21875)"/>
<path d="M0 0 C2.64 0 5.28 0 8 0 C8.33 83.16 8.66 166.32 9 252 C10.65 250.35 12.3 248.7 14 247 C16.1875 246.9375 16.1875 246.9375 18 248 C18.70704215 249.31236947 19.37860507 250.64497581 20 252 C18.41845837 254.23045661 16.83483359 256.45938423 15.25 258.6875 C14.8065625 259.31333984 14.363125 259.93917969 13.90625 260.58398438 C13.02683061 261.81905131 12.14082769 263.04945907 11.24804688 264.27490234 C10.13292165 265.81627067 9.0559025 267.38504226 7.984375 268.95703125 C6 271 6 271 3.58203125 271.35131836 C1 271 1 271 -0.74511719 269.50292969 C-1.25719727 268.81618164 -1.76927734 268.12943359 -2.296875 267.421875 C-2.86277344 266.67292969 -3.42867187 265.92398437 -4.01171875 265.15234375 C-4.87216797 263.96318359 -4.87216797 263.96318359 -5.75 262.75 C-6.33910156 261.97269531 -6.92820312 261.19539063 -7.53515625 260.39453125 C-12.49202857 253.72839261 -12.49202857 253.72839261 -13 250 C-11.8125 248.1875 -11.8125 248.1875 -10 247 C-8.125 246.9375 -8.125 246.9375 -6 248 C-4.35 249.98 -2.7 251.96 -1 254 C-0.67 170.18 -0.34 86.36 0 0 Z " fill="#0E0E0E" transform="translate(2227,505)"/>
<path d="M0 0 C3.1498971 0.27018661 4.37983094 1.03231752 6.87011719 2.93457031 C7.98966797 3.78728516 7.98966797 3.78728516 9.13183594 4.65722656 C9.89625 5.25921875 10.66066406 5.86121094 11.44824219 6.48144531 C12.228125 7.06796875 13.00800781 7.65449219 13.81152344 8.25878906 C20.07280843 13.10447919 20.07280843 13.10447919 20.69824219 17.23144531 C16.28229266 21.28045347 11.71324683 25.09852902 6.94824219 28.73144531 C6.04589844 29.42238281 5.14355469 30.11332031 4.21386719 30.82519531 C1.69824219 32.23144531 1.69824219 32.23144531 -0.56738281 32.01269531 C-2.30175781 31.23144531 -2.30175781 31.23144531 -3.30175781 30.23144531 C-3.67675781 27.91894531 -3.67675781 27.91894531 -3.30175781 25.23144531 C-0.82675781 23.25144531 -0.82675781 23.25144531 1.69824219 21.23144531 C-55.06175781 20.90144531 -111.82175781 20.57144531 -170.30175781 20.23144531 C-170.30175781 17.59144531 -170.30175781 14.95144531 -170.30175781 12.23144531 C-113.21175781 11.90144531 -56.12175781 11.57144531 2.69824219 11.23144531 C0.71824219 9.58144531 -1.26175781 7.93144531 -3.30175781 6.23144531 C-3.73925781 3.48144531 -3.73925781 3.48144531 -3.30175781 1.23144531 C-2.30175781 0.23144531 -2.30175781 0.23144531 0 0 Z " fill="#080808" transform="translate(822.3017578125,292.7685546875)"/>
<path d="M0 0 C1.0209375 0.4021875 1.0209375 0.4021875 2.0625 0.8125 C2.3925 2.4625 2.7225 4.1125 3.0625 5.8125 C1.0825 7.4625 -0.8975 9.1125 -2.9375 10.8125 C61.4125 11.3075 61.4125 11.3075 127.0625 11.8125 C127.0625 14.4525 127.0625 17.0925 127.0625 19.8125 C62.2175 20.3075 62.2175 20.3075 -3.9375 20.8125 C-1.6275 22.4625 0.6825 24.1125 3.0625 25.8125 C2.1875 30.6875 2.1875 30.6875 1.0625 31.8125 C-1.64363949 32.35992516 -3.40664299 32.10203347 -5.83007812 30.78027344 C-8.00925078 29.31888514 -10.09938462 27.77612015 -12.1875 26.1875 C-12.9196875 25.66542969 -13.651875 25.14335938 -14.40625 24.60546875 C-19.69899504 20.63590997 -19.69899504 20.63590997 -20.921875 16.4140625 C-20.92703125 15.55554688 -20.9321875 14.69703125 -20.9375 13.8125 C-17.29162567 10.78635837 -13.62226764 7.79114483 -9.9375 4.8125 C-9.24011719 4.23628906 -8.54273438 3.66007813 -7.82421875 3.06640625 C-5.04992059 0.89494893 -3.59269638 -0.22932105 0 0 Z " fill="#070707" transform="translate(1852.9375,969.1875)"/>
<path d="M0 0 C0.8125 2.1875 0.8125 2.1875 1 5 C-0.65 6.65 -2.3 8.3 -4 10 C38.57 10.33 81.14 10.66 125 11 C125 13.64 125 16.28 125 19 C82.1 19.33 39.2 19.66 -5 20 C-3.02 21.65 -1.04 23.3 1 25 C1.4375 27.75 1.4375 27.75 1 30 C0.67 30.33 0.34 30.66 0 31 C-6.38176229 30.79931565 -9.64335278 28.50945903 -14.3125 24.5625 C-14.93189453 24.05912109 -15.55128906 23.55574219 -16.18945312 23.03710938 C-18.55179991 21.10567927 -20.84145402 19.15854598 -23 17 C-23.12109375 14.765625 -23.12109375 14.765625 -22 12 C-19.55948307 9.62908102 -16.83878494 7.70803674 -14.0625 5.75 C-12.9497168 4.93789063 -12.9497168 4.93789063 -11.81445312 4.109375 C-4.34956395 -1.30486919 -4.34956395 -1.30486919 0 0 Z " fill="#070707" transform="translate(1205,970)"/>
</svg>
