<svg xmlns="http://www.w3.org/2000/svg" xmlns:xlink="http://www.w3.org/1999/xlink" width="2540" zoomAndPan="magnify" viewBox="0 0 1904.88 952.499971" height="1270" preserveAspectRatio="xMidYMid meet" version="1.0"><defs><clipPath id="401db2a306"><path d="M 44.457031 73.449219 L 489.488281 73.449219 L 489.488281 378.441406 L 44.457031 378.441406 Z M 44.457031 73.449219 " clip-rule="nonzero"/></clipPath><clipPath id="04487718e2"><path d="M 632.144531 75.878906 L 1008.101562 75.878906 L 1008.101562 380.871094 L 632.144531 380.871094 Z M 632.144531 75.878906 " clip-rule="nonzero"/></clipPath><clipPath id="90e376fde0"><path d="M 44.457031 581.871094 L 886.636719 581.871094 L 886.636719 889.203125 L 44.457031 889.203125 Z M 44.457031 581.871094 " clip-rule="nonzero"/></clipPath><clipPath id="fbfd451e3a"><path d="M 1484.46875 73.449219 L 1860.425781 73.449219 L 1860.425781 378.441406 L 1484.46875 378.441406 Z M 1484.46875 73.449219 " clip-rule="nonzero"/></clipPath><clipPath id="8e83bd6998"><path d="M 997.574219 581.871094 L 1373.53125 581.871094 L 1373.53125 889.203125 L 997.574219 889.203125 Z M 997.574219 581.871094 " clip-rule="nonzero"/></clipPath><clipPath id="59f3d3919b"><path d="M 1484.46875 581.871094 L 1860.425781 581.871094 L 1860.425781 889.203125 L 1484.46875 889.203125 Z M 1484.46875 581.871094 " clip-rule="nonzero"/></clipPath></defs><path stroke-linecap="butt" transform="matrix(0.749606, 0.0000000000017898, -0.0000000000017898, 0.749606, 430.628283, 228.376654)" fill="none" stroke-linejoin="miter" d="M 0.000831897 3.999894 L 264.832506 3.999894 " stroke="#000000" stroke-width="8" stroke-opacity="1" stroke-miterlimit="4"/><path stroke-linecap="round" transform="matrix(0.749606, 0.0000000000017898, -0.0000000000017898, 0.749606, 430.628283, 228.376654)" fill="none" stroke-linejoin="round" d="M 248.829316 -8.001195 L 264.832506 3.999894 L 248.829316 16.000983 " stroke="#000000" stroke-width="8" stroke-opacity="1" stroke-miterlimit="4"/><g clip-path="url(#401db2a306)"><path fill="#d9d9d9" d="M 44.457031 73.449219 L 490.03125 73.449219 L 490.03125 378.441406 L 44.457031 378.441406 Z M 44.457031 73.449219 " fill-opacity="1" fill-rule="nonzero"/></g><g clip-path="url(#04487718e2)"><path fill="#d9d9d9" d="M 632.144531 75.878906 L 1008.621094 75.878906 L 1008.621094 380.871094 L 632.144531 380.871094 Z M 632.144531 75.878906 " fill-opacity="1" fill-rule="nonzero"/></g><path stroke-linecap="butt" transform="matrix(0, 0.749606, -0.749606, 0, 1675.442532, 201.032387)" fill="none" stroke-linejoin="miter" d="M -0.00151702 3.99839 L 504.054643 3.99839 " stroke="#000000" stroke-width="8" stroke-opacity="1" stroke-miterlimit="4"/><path stroke-linecap="round" transform="matrix(0, 0.749606, -0.749606, 0, 1675.442532, 201.032387)" fill="none" stroke-linejoin="round" d="M 488.051454 -7.997488 L 504.054643 3.99839 L 488.051454 15.999479 " stroke="#000000" stroke-width="8" stroke-opacity="1" stroke-miterlimit="4"/><g clip-path="url(#90e376fde0)"><path fill="#d9d9d9" d="M 44.457031 581.871094 L 887.214844 581.871094 L 887.214844 889.203125 L 44.457031 889.203125 Z M 44.457031 581.871094 " fill-opacity="1" fill-rule="nonzero"/></g><g clip-path="url(#fbfd451e3a)"><path fill="#d9d9d9" d="M 1484.46875 73.449219 L 1860.941406 73.449219 L 1860.941406 378.441406 L 1484.46875 378.441406 Z M 1484.46875 73.449219 " fill-opacity="1" fill-rule="nonzero"/></g><path stroke-linecap="butt" transform="matrix(-0.749606, -0.00000000130831, 0.00000000130831, -0.749606, 1088.153054, 741.532363)" fill="none" stroke-linejoin="miter" d="M 0.000947677 3.998374 L 264.832621 3.998373 " stroke="#000000" stroke-width="8" stroke-opacity="1" stroke-miterlimit="4"/><path stroke-linecap="round" transform="matrix(-0.749606, -0.00000000130831, 0.00000000130831, -0.749606, 1088.153054, 741.532363)" fill="none" stroke-linejoin="round" d="M 248.829432 -7.997505 L 264.832621 3.998373 L 248.829432 15.999462 " stroke="#000000" stroke-width="8" stroke-opacity="1" stroke-miterlimit="4"/><g clip-path="url(#8e83bd6998)"><path fill="#d9d9d9" d="M 997.574219 581.871094 L 1373.335938 581.871094 L 1373.335938 889.203125 L 997.574219 889.203125 Z M 997.574219 581.871094 " fill-opacity="1" fill-rule="nonzero"/></g><path stroke-linecap="butt" transform="matrix(-0.749606, -0.00000000130831, 0.00000000130831, -0.749606, 1575.046336, 741.532363)" fill="none" stroke-linejoin="miter" d="M -0.000718797 3.998374 L 264.830955 3.998373 " stroke="#000000" stroke-width="8" stroke-opacity="1" stroke-miterlimit="4"/><path stroke-linecap="round" transform="matrix(-0.749606, -0.00000000130831, 0.00000000130831, -0.749606, 1575.046336, 741.532363)" fill="none" stroke-linejoin="round" d="M 248.832977 -7.997505 L 264.830955 3.998373 L 248.832977 15.999462 " stroke="#000000" stroke-width="8" stroke-opacity="1" stroke-miterlimit="4"/><g clip-path="url(#59f3d3919b)"><path fill="#d9d9d9" d="M 1484.46875 581.871094 L 1860.230469 581.871094 L 1860.230469 889.203125 L 1484.46875 889.203125 Z M 1484.46875 581.871094 " fill-opacity="1" fill-rule="nonzero"/></g><path stroke-linecap="butt" transform="matrix(0.749597, -0.00382349, 0.00382349, 0.749597, 1008.086641, 225.378257)" fill="none" stroke-linejoin="miter" d="M -0.000486316 3.997805 L 631.495306 3.99841 " stroke="#000000" stroke-width="8" stroke-opacity="1" stroke-miterlimit="4"/><path stroke-linecap="round" transform="matrix(0.749597, -0.00382349, 0.00382349, 0.749597, 1008.086641, 225.378257)" fill="none" stroke-linejoin="round" d="M 615.495793 -8.001066 L 631.495306 3.99841 L 615.49843 16.001437 " stroke="#000000" stroke-width="8" stroke-opacity="1" stroke-miterlimit="4"/><path stroke-linecap="butt" transform="matrix(0, 0.749606, -0.749606, 0, 823.117903, 380.877087)" fill="none" stroke-linejoin="miter" d="M 3.999316 3.997844 L 264.135818 3.997844 " stroke="#000000" stroke-width="8" stroke-opacity="1" stroke-miterlimit="4"/><path stroke-linecap="round" transform="matrix(0, 0.749606, -0.749606, 0, 823.117903, 380.877087)" fill="none" stroke-linejoin="round" d="M 20.002505 -7.998034 L 3.999316 3.997844 L 20.002505 15.998933 " stroke="#000000" stroke-width="8" stroke-opacity="1" stroke-miterlimit="4"/><path stroke-linecap="round" transform="matrix(0, 0.749606, -0.749606, 0, 823.117903, 380.877087)" fill="none" stroke-linejoin="round" d="M 248.13784 -7.998034 L 264.135818 3.997844 L 248.13784 15.998933 " stroke="#000000" stroke-width="8" stroke-opacity="1" stroke-miterlimit="4"/><path stroke-linecap="butt" transform="matrix(0, 0.749606, -0.749606, 0, 120.469071, 378.444059)" fill="none" stroke-linejoin="miter" d="M 3.998562 4.002528 L 267.376347 4.002528 " stroke="#000000" stroke-width="8" stroke-opacity="1" stroke-miterlimit="4"/><path stroke-linecap="round" transform="matrix(0, 0.749606, -0.749606, 0, 120.469071, 378.444059)" fill="none" stroke-linejoin="round" d="M 20.001751 -7.998561 L 3.998562 4.002528 L 20.001751 15.998406 " stroke="#000000" stroke-width="8" stroke-opacity="1" stroke-miterlimit="4"/><path stroke-linecap="round" transform="matrix(0, 0.749606, -0.749606, 0, 120.469071, 378.444059)" fill="none" stroke-linejoin="round" d="M 251.37837 -7.998561 L 267.376347 4.002528 L 251.37837 15.998406 " stroke="#000000" stroke-width="8" stroke-opacity="1" stroke-miterlimit="4"/></svg>